<svg xmlns="http://www.w3.org/2000/svg" viewBox="0 0 800 620" role="img" aria-labelledby="title desc">
  <title id="title">Браслет Chain Classic</title>
  <desc id="desc">Premium black and gold jewelry artwork for Браслет Chain Classic.</desc>
  <defs>
    <radialGradient id="bg" cx="50%" cy="42%" r="65%">
      <stop offset="0%" stop-color="#2b1a08"/>
      <stop offset="56%" stop-color="#090706"/>
      <stop offset="100%" stop-color="#020202"/>
    </radialGradient>
    <linearGradient id="gold" x1="0" y1="0" x2="1" y2="1">
      <stop offset="0" stop-color="#74410f"/><stop offset=".18" stop-color="#fff0bb"/><stop offset=".42" stop-color="#c98a31"/><stop offset=".66" stop-color="#fff1c2"/><stop offset="1" stop-color="#925617"/>
    </linearGradient>
    <filter id="glow" x="-35%" y="-35%" width="170%" height="170%"><feGaussianBlur stdDeviation="5" result="b"/><feColorMatrix in="b" type="matrix" values="1 0 0 0 1  0 .7 0 0 .52  0 0 .25 0 .12  0 0 0 .75 0"/><feMerge><feMergeNode/><feMergeNode in="SourceGraphic"/></feMerge></filter>
  </defs>
  <rect width="800" height="620" rx="44" fill="url(#bg)"/>
  <g opacity=".82">
      <path d="M-40 502 C 259 449, 573 439, 840 467" fill="none" stroke="#d69a45" stroke-width="2.4" opacity="0.24"/>
      <path d="M-40 516 C 271 464, 553 431, 840 481" fill="none" stroke="#ffe0a3" stroke-width=".8" opacity="0.36"/>
      <path d="M-40 155 C 178 133, 470 201, 840 190" fill="none" stroke="#d69a45" stroke-width="1.0" opacity="0.36"/>
      <path d="M-40 169 C 190 148, 450 193, 840 204" fill="none" stroke="#ffe0a3" stroke-width=".8" opacity="0.48"/>
      <path d="M-40 238 C 207 247, 517 243, 840 203" fill="none" stroke="#d69a45" stroke-width="1.7" opacity="0.18"/>
      <path d="M-40 252 C 219 262, 497 235, 840 217" fill="none" stroke="#ffe0a3" stroke-width=".8" opacity="0.30"/>
      <path d="M-40 321 C 236 361, 564 285, 840 356" fill="none" stroke="#d69a45" stroke-width="2.4" opacity="0.30"/>
      <path d="M-40 335 C 248 376, 544 277, 840 370" fill="none" stroke="#ffe0a3" stroke-width=".8" opacity="0.42"/>
      <path d="M-40 404 C 265 475, 611 477, 840 369" fill="none" stroke="#d69a45" stroke-width="1.0" opacity="0.42"/>
      <path d="M-40 418 C 277 490, 591 469, 840 383" fill="none" stroke="#ffe0a3" stroke-width=".8" opacity="0.54"/>
  </g>
  <ellipse cx="400" cy="346" rx="300" ry="226" fill="none" stroke="#d69a45" stroke-width="2" opacity=".18"/>
  <ellipse cx="400" cy="346" rx="228" ry="172" fill="none" stroke="#ffe0a3" stroke-width="1" opacity=".18"/>
  
      <g filter="url(#glow)">
        <ellipse cx="400" cy="350" rx="252" ry="168" transform="rotate(-10 400 350)" fill="none" stroke="url(#gold)" stroke-width="24"/>
        <ellipse cx="400" cy="350" rx="182" ry="104" transform="rotate(-10 400 350)" fill="none" stroke="#fff0bd" stroke-width="4" opacity=".55"/>
        <circle cx="209.7" cy="281.7" r="16" fill="url(#gold)"/><circle cx="256.8" cy="239.1" r="16" fill="url(#gold)"/><circle cx="324.7" cy="211.2" r="16" fill="url(#gold)"/><circle cx="403.7" cy="202.0" r="16" fill="url(#gold)"/><circle cx="482.1" cy="213.0" r="16" fill="url(#gold)"/><circle cx="548.5" cy="242.4" r="16" fill="url(#gold)"/><circle cx="593.3" cy="286.1" r="16" fill="url(#gold)"/><circle cx="610.0" cy="337.6" r="16" fill="url(#gold)"/><circle cx="596.1" cy="389.5" r="16" fill="url(#gold)"/><circle cx="553.6" cy="434.1" r="16" fill="url(#gold)"/>
        <path d="M260 128 L269 156 L300 166 L269 176 L260 208 L251 176 L220 166 L251 156 Z" fill="url(#gold)"/>
      </g>
  <g><circle cx="507" cy="341" r="2.5" fill="#ffe4a8" opacity=".75" filter="url(#glow)"/>
      <circle cx="604" cy="412" r="3.0" fill="#ffe4a8" opacity=".75" filter="url(#glow)"/>
      <circle cx="701" cy="483" r="3.5" fill="#ffe4a8" opacity=".75" filter="url(#glow)"/>
      <circle cx="178" cy="94" r="2.0" fill="#ffe4a8" opacity=".75" filter="url(#glow)"/>
      <circle cx="275" cy="165" r="2.5" fill="#ffe4a8" opacity=".75" filter="url(#glow)"/>
      <circle cx="372" cy="236" r="3.0" fill="#ffe4a8" opacity=".75" filter="url(#glow)"/>
      <circle cx="469" cy="307" r="3.5" fill="#ffe4a8" opacity=".75" filter="url(#glow)"/></g>
  <g opacity=".92">
    <text x="46" y="548" fill="#ffe4a8" font-family="Georgia, serif" font-size="24" letter-spacing="3">TOVMASYAN</text>
    <text x="46" y="580" fill="#c98a31" font-family="Arial, sans-serif" font-size="13" letter-spacing="5">БРАСЛЕТЫ</text>
  </g>
</svg>