<svg xmlns="http://www.w3.org/2000/svg" viewBox="0 0 800 620" role="img" aria-labelledby="title desc">
  <title id="title">Кольцо Classic Band</title>
  <desc id="desc">Premium black and gold jewelry artwork for Кольцо Classic Band.</desc>
  <defs>
    <radialGradient id="bg" cx="50%" cy="42%" r="65%">
      <stop offset="0%" stop-color="#2b1a08"/>
      <stop offset="56%" stop-color="#090706"/>
      <stop offset="100%" stop-color="#020202"/>
    </radialGradient>
    <linearGradient id="gold" x1="0" y1="0" x2="1" y2="1">
      <stop offset="0" stop-color="#74410f"/><stop offset=".18" stop-color="#fff0bb"/><stop offset=".42" stop-color="#c98a31"/><stop offset=".66" stop-color="#fff1c2"/><stop offset="1" stop-color="#925617"/>
    </linearGradient>
    <filter id="glow" x="-35%" y="-35%" width="170%" height="170%"><feGaussianBlur stdDeviation="5" result="b"/><feColorMatrix in="b" type="matrix" values="1 0 0 0 1  0 .7 0 0 .52  0 0 .25 0 .12  0 0 0 .75 0"/><feMerge><feMergeNode/><feMergeNode in="SourceGraphic"/></feMerge></filter>
  </defs>
  <rect width="800" height="620" rx="44" fill="url(#bg)"/>
  <g opacity=".82">
      <path d="M-40 206 C 217 177, 539 247, 840 171" fill="none" stroke="#d69a45" stroke-width="1.0" opacity="0.36"/>
      <path d="M-40 220 C 229 192, 519 239, 840 185" fill="none" stroke="#ffe0a3" stroke-width=".8" opacity="0.48"/>
      <path d="M-40 289 C 246 291, 586 289, 840 324" fill="none" stroke="#d69a45" stroke-width="1.7" opacity="0.18"/>
      <path d="M-40 303 C 258 306, 566 281, 840 338" fill="none" stroke="#ffe0a3" stroke-width=".8" opacity="0.30"/>
      <path d="M-40 372 C 165 405, 483 331, 840 337" fill="none" stroke="#d69a45" stroke-width="2.4" opacity="0.30"/>
      <path d="M-40 386 C 177 420, 463 323, 840 351" fill="none" stroke="#ffe0a3" stroke-width=".8" opacity="0.42"/>
      <path d="M-40 455 C 194 519, 530 523, 840 490" fill="none" stroke="#d69a45" stroke-width="1.0" opacity="0.42"/>
      <path d="M-40 469 C 206 534, 510 515, 840 504" fill="none" stroke="#ffe0a3" stroke-width=".8" opacity="0.54"/>
      <path d="M-40 108 C 223 43, 577 135, 840 73" fill="none" stroke="#d69a45" stroke-width="1.7" opacity="0.24"/>
      <path d="M-40 122 C 235 58, 557 127, 840 87" fill="none" stroke="#ffe0a3" stroke-width=".8" opacity="0.36"/>
  </g>
  <ellipse cx="400" cy="346" rx="300" ry="226" fill="none" stroke="#d69a45" stroke-width="2" opacity=".18"/>
  <ellipse cx="400" cy="346" rx="228" ry="172" fill="none" stroke="#ffe0a3" stroke-width="1" opacity=".18"/>
  
      <g filter="url(#glow)" fill="none" stroke="url(#gold)" stroke-linecap="round">
        <ellipse cx="342" cy="350" rx="148" ry="116" stroke-width="28" transform="rotate(-13 342 350)"/>
        <ellipse cx="470" cy="344" rx="148" ry="116" stroke-width="28" transform="rotate(15 470 344)" opacity=".94"/>
        <ellipse cx="342" cy="350" rx="90" ry="66" stroke="#fff0bd" stroke-width="4" opacity=".62" transform="rotate(-13 342 350)"/>
        <ellipse cx="470" cy="344" rx="90" ry="66" stroke="#fff0bd" stroke-width="4" opacity=".62" transform="rotate(15 470 344)"/>
      </g>
      <path d="M400 126 L413 165 L452 178 L413 191 L400 232 L387 191 L348 178 L387 165 Z" fill="url(#gold)" filter="url(#glow)"/>
  <g><circle cx="639" cy="457" r="2.5" fill="#ffe4a8" opacity=".75" filter="url(#glow)"/>
      <circle cx="116" cy="528" r="3.0" fill="#ffe4a8" opacity=".75" filter="url(#glow)"/>
      <circle cx="213" cy="139" r="3.5" fill="#ffe4a8" opacity=".75" filter="url(#glow)"/>
      <circle cx="310" cy="210" r="2.0" fill="#ffe4a8" opacity=".75" filter="url(#glow)"/>
      <circle cx="407" cy="281" r="2.5" fill="#ffe4a8" opacity=".75" filter="url(#glow)"/>
      <circle cx="504" cy="352" r="3.0" fill="#ffe4a8" opacity=".75" filter="url(#glow)"/>
      <circle cx="601" cy="423" r="3.5" fill="#ffe4a8" opacity=".75" filter="url(#glow)"/></g>
  <g opacity=".92">
    <text x="46" y="548" fill="#ffe4a8" font-family="Georgia, serif" font-size="24" letter-spacing="3">TOVMASYAN</text>
    <text x="46" y="580" fill="#c98a31" font-family="Arial, sans-serif" font-size="13" letter-spacing="5">КОЛЬЦА</text>
  </g>
</svg>