<svg xmlns="http://www.w3.org/2000/svg" viewBox="0 0 800 620" role="img" aria-labelledby="title desc">
  <title id="title">Кольцо Diamond Halo</title>
  <desc id="desc">Premium black and gold jewelry artwork for Кольцо Diamond Halo.</desc>
  <defs>
    <radialGradient id="bg" cx="50%" cy="42%" r="65%">
      <stop offset="0%" stop-color="#2b1a08"/>
      <stop offset="56%" stop-color="#090706"/>
      <stop offset="100%" stop-color="#020202"/>
    </radialGradient>
    <linearGradient id="gold" x1="0" y1="0" x2="1" y2="1">
      <stop offset="0" stop-color="#74410f"/><stop offset=".18" stop-color="#fff0bb"/><stop offset=".42" stop-color="#c98a31"/><stop offset=".66" stop-color="#fff1c2"/><stop offset="1" stop-color="#925617"/>
    </linearGradient>
    <filter id="glow" x="-35%" y="-35%" width="170%" height="170%"><feGaussianBlur stdDeviation="5" result="b"/><feColorMatrix in="b" type="matrix" values="1 0 0 0 1  0 .7 0 0 .52  0 0 .25 0 .12  0 0 0 .75 0"/><feMerge><feMergeNode/><feMergeNode in="SourceGraphic"/></feMerge></filter>
  </defs>
  <rect width="800" height="620" rx="44" fill="url(#bg)"/>
  <g opacity=".82">
      <path d="M-40 169 C 198 123, 516 223, 840 134" fill="none" stroke="#d69a45" stroke-width="2.4" opacity="0.30"/>
      <path d="M-40 183 C 210 138, 496 215, 840 148" fill="none" stroke="#ffe0a3" stroke-width=".8" opacity="0.42"/>
      <path d="M-40 252 C 227 237, 563 265, 840 287" fill="none" stroke="#d69a45" stroke-width="1.0" opacity="0.42"/>
      <path d="M-40 266 C 239 252, 543 257, 840 301" fill="none" stroke="#ffe0a3" stroke-width=".8" opacity="0.54"/>
      <path d="M-40 335 C 256 351, 610 307, 840 300" fill="none" stroke="#d69a45" stroke-width="1.7" opacity="0.24"/>
      <path d="M-40 349 C 268 366, 590 299, 840 314" fill="none" stroke="#ffe0a3" stroke-width=".8" opacity="0.36"/>
      <path d="M-40 418 C 175 465, 507 349, 840 453" fill="none" stroke="#d69a45" stroke-width="2.4" opacity="0.36"/>
      <path d="M-40 432 C 187 480, 487 341, 840 467" fill="none" stroke="#ffe0a3" stroke-width=".8" opacity="0.48"/>
      <path d="M-40 501 C 204 579, 554 541, 840 466" fill="none" stroke="#d69a45" stroke-width="1.0" opacity="0.18"/>
      <path d="M-40 515 C 216 594, 534 533, 840 480" fill="none" stroke="#ffe0a3" stroke-width=".8" opacity="0.30"/>
  </g>
  <ellipse cx="400" cy="346" rx="300" ry="226" fill="none" stroke="#d69a45" stroke-width="2" opacity=".18"/>
  <ellipse cx="400" cy="346" rx="228" ry="172" fill="none" stroke="#ffe0a3" stroke-width="1" opacity=".18"/>
  
      <g filter="url(#glow)" transform="translate(0 1)">
        <ellipse cx="400" cy="386" rx="154" ry="118" fill="none" stroke="url(#gold)" stroke-width="34"/>
        <ellipse cx="400" cy="386" rx="94" ry="66" fill="none" stroke="#fff0bd" stroke-width="3" opacity=".72"/>
        <path d="M302 230 L350 178 H450 L498 230 L400 338 Z" fill="#0d0906" stroke="url(#gold)" stroke-width="9" stroke-linejoin="round"/>
        <path d="M350 178 L376 230 L400 178 L424 230 L450 178 M302 230 H498 M376 230 L400 338 M424 230 L400 338" fill="none" stroke="#fff0bd" stroke-width="4" opacity=".9"/>
        <path d="M530 150 L540 179 L570 189 L540 199 L530 230 L520 199 L490 189 L520 179 Z" fill="url(#gold)"/>
      </g>
  <g><circle cx="578" cy="414" r="2.0" fill="#ffe4a8" opacity=".75" filter="url(#glow)"/>
      <circle cx="675" cy="485" r="2.5" fill="#ffe4a8" opacity=".75" filter="url(#glow)"/>
      <circle cx="152" cy="96" r="3.0" fill="#ffe4a8" opacity=".75" filter="url(#glow)"/>
      <circle cx="249" cy="167" r="3.5" fill="#ffe4a8" opacity=".75" filter="url(#glow)"/>
      <circle cx="346" cy="238" r="2.0" fill="#ffe4a8" opacity=".75" filter="url(#glow)"/>
      <circle cx="443" cy="309" r="2.5" fill="#ffe4a8" opacity=".75" filter="url(#glow)"/>
      <circle cx="540" cy="380" r="3.0" fill="#ffe4a8" opacity=".75" filter="url(#glow)"/></g>
  <g opacity=".92">
    <text x="46" y="548" fill="#ffe4a8" font-family="Georgia, serif" font-size="24" letter-spacing="3">TOVMASYAN</text>
    <text x="46" y="580" fill="#c98a31" font-family="Arial, sans-serif" font-size="13" letter-spacing="5">КОЛЬЦА</text>
  </g>
</svg>