<svg xmlns="http://www.w3.org/2000/svg" viewBox="0 0 800 620" role="img" aria-labelledby="title desc">
  <title id="title">Подвеска Diamond Star</title>
  <desc id="desc">Premium black and gold jewelry artwork for Подвеска Diamond Star.</desc>
  <defs>
    <radialGradient id="bg" cx="50%" cy="42%" r="65%">
      <stop offset="0%" stop-color="#2b1a08"/>
      <stop offset="56%" stop-color="#090706"/>
      <stop offset="100%" stop-color="#020202"/>
    </radialGradient>
    <linearGradient id="gold" x1="0" y1="0" x2="1" y2="1">
      <stop offset="0" stop-color="#74410f"/><stop offset=".18" stop-color="#fff0bb"/><stop offset=".42" stop-color="#c98a31"/><stop offset=".66" stop-color="#fff1c2"/><stop offset="1" stop-color="#925617"/>
    </linearGradient>
    <filter id="glow" x="-35%" y="-35%" width="170%" height="170%"><feGaussianBlur stdDeviation="5" result="b"/><feColorMatrix in="b" type="matrix" values="1 0 0 0 1  0 .7 0 0 .52  0 0 .25 0 .12  0 0 0 .75 0"/><feMerge><feMergeNode/><feMergeNode in="SourceGraphic"/></feMerge></filter>
  </defs>
  <rect width="800" height="620" rx="44" fill="url(#bg)"/>
  <g opacity=".82">
      <path d="M-40 294 C 263 343, 561 303, 840 259" fill="none" stroke="#d69a45" stroke-width="2.4" opacity="0.30"/>
      <path d="M-40 308 C 275 358, 541 295, 840 273" fill="none" stroke="#ffe0a3" stroke-width=".8" opacity="0.42"/>
      <path d="M-40 377 C 182 297, 608 345, 840 412" fill="none" stroke="#d69a45" stroke-width="1.0" opacity="0.42"/>
      <path d="M-40 391 C 194 312, 588 337, 840 426" fill="none" stroke="#ffe0a3" stroke-width=".8" opacity="0.54"/>
      <path d="M-40 460 C 211 411, 505 537, 840 425" fill="none" stroke="#d69a45" stroke-width="1.7" opacity="0.24"/>
      <path d="M-40 474 C 223 426, 485 529, 840 439" fill="none" stroke="#ffe0a3" stroke-width=".8" opacity="0.36"/>
      <path d="M-40 113 C 240 95, 552 149, 840 148" fill="none" stroke="#d69a45" stroke-width="2.4" opacity="0.36"/>
      <path d="M-40 127 C 252 110, 532 141, 840 162" fill="none" stroke="#ffe0a3" stroke-width=".8" opacity="0.48"/>
      <path d="M-40 196 C 269 209, 599 191, 840 161" fill="none" stroke="#d69a45" stroke-width="1.0" opacity="0.18"/>
      <path d="M-40 210 C 281 224, 579 183, 840 175" fill="none" stroke="#ffe0a3" stroke-width=".8" opacity="0.30"/>
  </g>
  <ellipse cx="400" cy="346" rx="300" ry="226" fill="none" stroke="#d69a45" stroke-width="2" opacity=".18"/>
  <ellipse cx="400" cy="346" rx="228" ry="172" fill="none" stroke="#ffe0a3" stroke-width="1" opacity=".18"/>
  
      <g filter="url(#glow)" fill="none" stroke="url(#gold)" stroke-linejoin="round" stroke-linecap="round">
        <path d="M400 78 C400 142 400 184 400 220" stroke-width="8"/>
        <circle cx="400" cy="225" r="41" stroke-width="14"/>
        <path d="M400 280 L520 384 L400 528 L280 384 Z" stroke-width="16" fill="#0b0806"/>
        <path d="M400 280 L400 528 M280 384 H520 M338 334 L400 528 M462 334 L400 528" stroke="#fff0bd" stroke-width="4" opacity=".82"/>
      </g>
  <g><circle cx="253" cy="139" r="3.5" fill="#ffe4a8" opacity=".75" filter="url(#glow)"/>
      <circle cx="350" cy="210" r="2.0" fill="#ffe4a8" opacity=".75" filter="url(#glow)"/>
      <circle cx="447" cy="281" r="2.5" fill="#ffe4a8" opacity=".75" filter="url(#glow)"/>
      <circle cx="544" cy="352" r="3.0" fill="#ffe4a8" opacity=".75" filter="url(#glow)"/>
      <circle cx="641" cy="423" r="3.5" fill="#ffe4a8" opacity=".75" filter="url(#glow)"/>
      <circle cx="118" cy="494" r="2.0" fill="#ffe4a8" opacity=".75" filter="url(#glow)"/>
      <circle cx="215" cy="105" r="2.5" fill="#ffe4a8" opacity=".75" filter="url(#glow)"/></g>
  <g opacity=".92">
    <text x="46" y="548" fill="#ffe4a8" font-family="Georgia, serif" font-size="24" letter-spacing="3">TOVMASYAN</text>
    <text x="46" y="580" fill="#c98a31" font-family="Arial, sans-serif" font-size="13" letter-spacing="5">ПОДВЕСКИ</text>
  </g>
</svg>