<svg xmlns="http://www.w3.org/2000/svg" viewBox="0 0 800 620" role="img" aria-labelledby="title desc">
  <title id="title">Подвеска Heart</title>
  <desc id="desc">Premium black and gold jewelry artwork for Подвеска Heart.</desc>
  <defs>
    <radialGradient id="bg" cx="50%" cy="42%" r="65%">
      <stop offset="0%" stop-color="#2b1a08"/>
      <stop offset="56%" stop-color="#090706"/>
      <stop offset="100%" stop-color="#020202"/>
    </radialGradient>
    <linearGradient id="gold" x1="0" y1="0" x2="1" y2="1">
      <stop offset="0" stop-color="#74410f"/><stop offset=".18" stop-color="#fff0bb"/><stop offset=".42" stop-color="#c98a31"/><stop offset=".66" stop-color="#fff1c2"/><stop offset="1" stop-color="#925617"/>
    </linearGradient>
    <filter id="glow" x="-35%" y="-35%" width="170%" height="170%"><feGaussianBlur stdDeviation="5" result="b"/><feColorMatrix in="b" type="matrix" values="1 0 0 0 1  0 .7 0 0 .52  0 0 .25 0 .12  0 0 0 .75 0"/><feMerge><feMergeNode/><feMergeNode in="SourceGraphic"/></feMerge></filter>
  </defs>
  <rect width="800" height="620" rx="44" fill="url(#bg)"/>
  <g opacity=".82">
      <path d="M-40 405 C 210 345, 480 375, 840 370" fill="none" stroke="#d69a45" stroke-width="2.4" opacity="0.18"/>
      <path d="M-40 419 C 222 360, 460 367, 840 384" fill="none" stroke="#ffe0a3" stroke-width=".8" opacity="0.30"/>
      <path d="M-40 488 C 239 459, 527 567, 840 523" fill="none" stroke="#d69a45" stroke-width="1.0" opacity="0.30"/>
      <path d="M-40 502 C 251 474, 507 559, 840 537" fill="none" stroke="#ffe0a3" stroke-width=".8" opacity="0.42"/>
      <path d="M-40 141 C 268 143, 574 179, 840 106" fill="none" stroke="#d69a45" stroke-width="1.7" opacity="0.42"/>
      <path d="M-40 155 C 280 158, 554 171, 840 120" fill="none" stroke="#ffe0a3" stroke-width=".8" opacity="0.54"/>
      <path d="M-40 224 C 187 257, 471 221, 840 259" fill="none" stroke="#d69a45" stroke-width="2.4" opacity="0.24"/>
      <path d="M-40 238 C 199 272, 451 213, 840 273" fill="none" stroke="#ffe0a3" stroke-width=".8" opacity="0.36"/>
      <path d="M-40 307 C 216 371, 518 263, 840 272" fill="none" stroke="#d69a45" stroke-width="1.0" opacity="0.36"/>
      <path d="M-40 321 C 228 386, 498 255, 840 286" fill="none" stroke="#ffe0a3" stroke-width=".8" opacity="0.48"/>
  </g>
  <ellipse cx="400" cy="346" rx="300" ry="226" fill="none" stroke="#d69a45" stroke-width="2" opacity=".18"/>
  <ellipse cx="400" cy="346" rx="228" ry="172" fill="none" stroke="#ffe0a3" stroke-width="1" opacity=".18"/>
  
      <g filter="url(#glow)" fill="none" stroke="url(#gold)" stroke-linejoin="round" stroke-linecap="round">
        <path d="M400 78 C400 142 400 184 400 220" stroke-width="8"/>
        <circle cx="400" cy="225" r="41" stroke-width="14"/>
        <path d="M400 280 L520 384 L400 528 L280 384 Z" stroke-width="16" fill="#0b0806"/>
        <path d="M400 280 L400 528 M280 384 H520 M338 334 L400 528 M462 334 L400 528" stroke="#fff0bd" stroke-width="4" opacity=".82"/>
      </g>
  <g><circle cx="436" cy="268" r="3.0" fill="#ffe4a8" opacity=".75" filter="url(#glow)"/>
      <circle cx="533" cy="339" r="3.5" fill="#ffe4a8" opacity=".75" filter="url(#glow)"/>
      <circle cx="630" cy="410" r="2.0" fill="#ffe4a8" opacity=".75" filter="url(#glow)"/>
      <circle cx="107" cy="481" r="2.5" fill="#ffe4a8" opacity=".75" filter="url(#glow)"/>
      <circle cx="204" cy="92" r="3.0" fill="#ffe4a8" opacity=".75" filter="url(#glow)"/>
      <circle cx="301" cy="163" r="3.5" fill="#ffe4a8" opacity=".75" filter="url(#glow)"/>
      <circle cx="398" cy="234" r="2.0" fill="#ffe4a8" opacity=".75" filter="url(#glow)"/></g>
  <g opacity=".92">
    <text x="46" y="548" fill="#ffe4a8" font-family="Georgia, serif" font-size="24" letter-spacing="3">TOVMASYAN</text>
    <text x="46" y="580" fill="#c98a31" font-family="Arial, sans-serif" font-size="13" letter-spacing="5">ПОДВЕСКИ</text>
  </g>
</svg>