<svg xmlns="http://www.w3.org/2000/svg" viewBox="0 0 800 620" role="img" aria-labelledby="title desc">
  <title id="title">Обручальные Roman</title>
  <desc id="desc">Premium black and gold jewelry artwork for Обручальные Roman.</desc>
  <defs>
    <radialGradient id="bg" cx="50%" cy="42%" r="65%">
      <stop offset="0%" stop-color="#2b1a08"/>
      <stop offset="56%" stop-color="#090706"/>
      <stop offset="100%" stop-color="#020202"/>
    </radialGradient>
    <linearGradient id="gold" x1="0" y1="0" x2="1" y2="1">
      <stop offset="0" stop-color="#74410f"/><stop offset=".18" stop-color="#fff0bb"/><stop offset=".42" stop-color="#c98a31"/><stop offset=".66" stop-color="#fff1c2"/><stop offset="1" stop-color="#925617"/>
    </linearGradient>
    <filter id="glow" x="-35%" y="-35%" width="170%" height="170%"><feGaussianBlur stdDeviation="5" result="b"/><feColorMatrix in="b" type="matrix" values="1 0 0 0 1  0 .7 0 0 .52  0 0 .25 0 .12  0 0 0 .75 0"/><feMerge><feMergeNode/><feMergeNode in="SourceGraphic"/></feMerge></filter>
  </defs>
  <rect width="800" height="620" rx="44" fill="url(#bg)"/>
  <g opacity=".82">
      <path d="M-40 516 C 267 507, 549 447, 840 481" fill="none" stroke="#d69a45" stroke-width="2.4" opacity="0.36"/>
      <path d="M-40 530 C 279 522, 529 439, 840 495" fill="none" stroke="#ffe0a3" stroke-width=".8" opacity="0.48"/>
      <path d="M-40 169 C 186 191, 596 209, 840 204" fill="none" stroke="#d69a45" stroke-width="1.0" opacity="0.18"/>
      <path d="M-40 183 C 198 206, 576 201, 840 218" fill="none" stroke="#ffe0a3" stroke-width=".8" opacity="0.30"/>
      <path d="M-40 252 C 215 305, 493 251, 840 217" fill="none" stroke="#d69a45" stroke-width="1.7" opacity="0.30"/>
      <path d="M-40 266 C 227 320, 473 243, 840 231" fill="none" stroke="#ffe0a3" stroke-width=".8" opacity="0.42"/>
      <path d="M-40 335 C 244 259, 540 293, 840 370" fill="none" stroke="#d69a45" stroke-width="2.4" opacity="0.42"/>
      <path d="M-40 349 C 256 274, 520 285, 840 384" fill="none" stroke="#ffe0a3" stroke-width=".8" opacity="0.54"/>
      <path d="M-40 418 C 163 373, 587 485, 840 383" fill="none" stroke="#d69a45" stroke-width="1.0" opacity="0.24"/>
      <path d="M-40 432 C 175 388, 567 477, 840 397" fill="none" stroke="#ffe0a3" stroke-width=".8" opacity="0.36"/>
  </g>
  <ellipse cx="400" cy="346" rx="300" ry="226" fill="none" stroke="#d69a45" stroke-width="2" opacity=".18"/>
  <ellipse cx="400" cy="346" rx="228" ry="172" fill="none" stroke="#ffe0a3" stroke-width="1" opacity=".18"/>
  
      <g filter="url(#glow)" fill="none" stroke="url(#gold)" stroke-linecap="round">
        <ellipse cx="342" cy="350" rx="148" ry="116" stroke-width="28" transform="rotate(-13 342 350)"/>
        <ellipse cx="470" cy="344" rx="148" ry="116" stroke-width="28" transform="rotate(15 470 344)" opacity=".94"/>
        <ellipse cx="342" cy="350" rx="90" ry="66" stroke="#fff0bd" stroke-width="4" opacity=".62" transform="rotate(-13 342 350)"/>
        <ellipse cx="470" cy="344" rx="90" ry="66" stroke="#fff0bd" stroke-width="4" opacity=".62" transform="rotate(15 470 344)"/>
      </g>
      <path d="M400 126 L413 165 L452 178 L413 191 L400 232 L387 191 L348 178 L387 165 Z" fill="url(#gold)" filter="url(#glow)"/>
  <g><circle cx="619" cy="397" r="2.5" fill="#ffe4a8" opacity=".75" filter="url(#glow)"/>
      <circle cx="96" cy="468" r="3.0" fill="#ffe4a8" opacity=".75" filter="url(#glow)"/>
      <circle cx="193" cy="79" r="3.5" fill="#ffe4a8" opacity=".75" filter="url(#glow)"/>
      <circle cx="290" cy="150" r="2.0" fill="#ffe4a8" opacity=".75" filter="url(#glow)"/>
      <circle cx="387" cy="221" r="2.5" fill="#ffe4a8" opacity=".75" filter="url(#glow)"/>
      <circle cx="484" cy="292" r="3.0" fill="#ffe4a8" opacity=".75" filter="url(#glow)"/>
      <circle cx="581" cy="363" r="3.5" fill="#ffe4a8" opacity=".75" filter="url(#glow)"/></g>
  <g opacity=".92">
    <text x="46" y="548" fill="#ffe4a8" font-family="Georgia, serif" font-size="24" letter-spacing="3">TOVMASYAN</text>
    <text x="46" y="580" fill="#c98a31" font-family="Arial, sans-serif" font-size="13" letter-spacing="5">ОБРУЧАЛЬНЫЕ</text>
  </g>
</svg>